# xmcd
#
# Track frame offsets: 
#        150
#        10907
#        24617
#        34877
#        52105
#        65532
#        77355
#        89507
#        102060
#        114880
#        126097
#        137800
#
# Disc length: 2007 seconds
#
# Revision: 3
# Processed by: cddbd v1.5.2PL0 Copyright (c) Steve Scherf et al.
# Submitted via: ExactAudioCopy v1.3
#
DISCID=9707d50c
DTITLE=Sugar Pie DeSanto - Down In The Basement - The Chess Years
DYEAR=1989
DGENRE=Blues
TTITLE0=In The Basement, Part One
TTITLE1=I Want To Know
TTITLE2=Mama Didn't Raise No Fool
TTITLE3=Maybe You'll Be There
TTITLE4=Do I Make Myself Clear
TTITLE5=Ask Me
TTITLE6=Use What You Got
TTITLE7=Can't Let You Go
TTITLE8=Soulful Dress
TTITLE9=Going Back To Where I Belong
TTITLE10=She's Got Everything
TTITLE11=Slip-in Mules
EXTD=
EXTT0=
EXTT1=
EXTT2=
EXTT3=
EXTT4=
EXTT5=
EXTT6=
EXTT7=
EXTT8=
EXTT9=
EXTT10=
EXTT11=
PLAYORDER=
